<?xml version="1.0" encoding="utf-8"?>
<svg viewBox="-159.783 -239.665 180 68.024" width="180px" height="68.024px" xmlns="http://www.w3.org/2000/svg">
  <g transform="matrix(0.998934, 0, 0, 0.998934, -0.170268, -0.255392)">
    <path d="M -159.783 -239.648 L -149.819 -222.584 L -126.395 -222.584 C -115.238 -220.868 -117.985 -211.718 -121.2 -210.801 L -112.397 -196.253 C -96.089 -202.781 -86.666 -235.266 -117.412 -239.648" style="stroke: rgba(0, 0, 0, 0); fill: rgb(255, 255, 255);"/>
    <path d="M -100.986 -171.594 L -122.805 -171.594 L -134.324 -193.108 L -155.773 -193.128 L -144.996 -210.753 L -123.984 -210.801" style="stroke: rgba(0, 0, 0, 0); fill: rgb(255, 255, 255);"/>
    <path d="M -107.682 -188.709 L -97.997 -171.594 L -39.341 -171.594 L -54.98 -189.471 L -85.173 -189.471 L -70.852 -210.418 C -66.803 -216.988 -63.576 -214.555 -60.723 -210.753 L -37.53 -181.855 C -33.65 -175.772 -21.182 -171.545 -19.241 -171.594 L 20.409 -171.594 L 7.659 -189.471 L -14.085 -189.471 C -18.036 -190.404 -23.627 -193.108 -27.81 -198.12 L -53.397 -233.426 C -58.28 -241.777 -72.428 -241.711 -77.001 -233.426" style="stroke: rgba(152, 21, 21, 0); fill: rgb(255, 255, 255);"/>
    <path d="M 20.409 -239.665 L 7.659 -222.584 L -18.424 -222.584 C -23.567 -222.409 -31.524 -212.857 -31.524 -208.813 L -43.481 -224.936 C -41.821 -230.434 -32.113 -239.881 -27.947 -239.648" style="stroke: rgba(152, 21, 21, 0); fill: rgb(255, 255, 255);"/>
  </g>
</svg>